<?xml version="1.0" encoding="UTF-8"?>
<svg id="_Слой_2" data-name="Слой 2" xmlns="http://www.w3.org/2000/svg" viewBox="0 0 40.18 32">
  <defs>
    <style>
      .cls-1 {
        stroke-width: 0px;
      }
    </style>
  </defs>
  <g id="_Слой_1-2" data-name="Слой 1">
    <g>
      <path class="cls-1" d="M36,32H4c-2.21,0-4-1.79-4-4V4C0,1.79,1.79,0,4,0h32c2.21,0,4,1.79,4,4v24c0,2.21-1.79,4-4,4ZM4,2c-1.1,0-2,.9-2,2v24c0,1.1.9,2,2,2h32c1.1,0,2-.9,2-2V4c0-1.1-.9-2-2-2H4Z"/>
      <path class="cls-1" d="M20.46,18.08c-.75,0-1.5-.21-2.15-.62L2.59,7.45C1.05,6.47.39,4.7.9,2.95S2.92.07,4.74.07h31.43c1.82,0,3.33,1.13,3.84,2.88.51,1.75-.15,3.51-1.69,4.49l-15.72,10.01c-.65.42-1.4.62-2.15.62ZM4.74,2.07c-1.11,0-1.72.74-1.92,1.44-.2.7-.09,1.65.85,2.25l15.72,10.01c.65.42,1.5.42,2.15,0l15.72-10.01c.93-.59,1.05-1.55.85-2.25-.2-.7-.81-1.44-1.92-1.44H4.74Z"/>
    </g>
  </g>
</svg>