<?xml version="1.0" encoding="UTF-8"?>
<svg id="_Слой_2" data-name="Слой 2" xmlns="http://www.w3.org/2000/svg" viewBox="0 0 23.75 35.32">
  <defs>
    <style>
      .cls-1 {
        stroke-width: 0px;
      }
    </style>
  </defs>
  <g id="_Слой_1-2" data-name="Слой 1">
    <g>
      <path class="cls-1" d="M12.1,35.32h-.06c-.82-.02-1.56-.48-1.91-1.21-.99-2-2.16-4.18-3.19-6.09l-.13-.24c-1.07-1.99-2.18-4.05-3.17-6.03-1.16-2.31-2.01-4.21-2.59-5.81-.7-1.93-1.05-3.47-1.05-4.71C0,5.04,5.33,0,11.88,0s11.88,5.04,11.88,11.23c0,2.38-1.06,5.83-3.25,10.55-1.85,3.99-4.16,8.19-6.56,12.49-.36.65-1.07,1.05-1.85,1.05ZM11.88,2C6.43,2,2,6.14,2,11.23c0,.98.31,2.34.93,4.02.56,1.52,1.37,3.35,2.5,5.6.98,1.95,2.08,4,3.14,5.98l.13.24c1.04,1.93,2.22,4.12,3.22,6.16.01.02.04.07.13.09.08.02.15,0,.16-.02,2.38-4.26,4.66-8.42,6.48-12.35,2.03-4.39,3.06-7.66,3.06-9.71,0-5.09-4.43-9.23-9.88-9.23Z"/>
      <path class="cls-1" d="M11.88,17c-2.76,0-5-2.24-5-5s2.24-5,5-5,5,2.24,5,5-2.24,5-5,5ZM11.88,9c-1.65,0-3,1.35-3,3s1.35,3,3,3,3-1.35,3-3-1.35-3-3-3Z"/>
    </g>
  </g>
</svg>