<svg width="27" height="26" viewBox="0 0 27 26" fill="none" xmlns="http://www.w3.org/2000/svg">
<path fill-rule="evenodd" clip-rule="evenodd" d="M22.5537 2.02151C17.4348 2.00501 6.86343 1.98261 4.54795 2.02174C3.73737 2.03543 3.27516 2.38978 2.97582 2.83074C2.64914 3.31198 2.51481 3.91488 2.5 4.30858V21.7303C2.5 22.491 2.82982 22.9996 3.27186 23.3632C3.71331 23.7262 4.25428 23.9271 4.62033 24H11.0839V18.6183H8.20186V12.0605H11.0839V9.7867L11.0896 9.73343C11.2997 7.77777 12.2212 6.47563 13.3309 5.67985C14.405 4.90961 15.615 4.63979 16.4439 4.62932L16.4565 4.62916L21.8789 4.62924V11.2366H17.705V12.0605H22.0684L20.9245 18.6183H17.705V24H21.8727C22.9649 24 23.5732 23.5892 23.9347 23.1437C24.3209 22.6678 24.4773 22.0822 24.4997 21.7093C24.4498 16.7994 24.3309 6.52562 24.2522 4.32742C24.1974 2.79673 23.1207 2.17055 22.5537 2.02151ZM4.51416 0.022021C6.87254 -0.0178326 17.6099 0.00539346 22.671 0.0218836L22.768 0.0221999L22.8633 0.0411866C23.982 0.264278 26.1495 1.42471 26.2509 4.25582C26.331 6.49187 26.4504 16.8414 26.4999 21.7201L26.5002 21.748L26.499 21.7758C26.4662 22.4944 26.1984 23.5281 25.4877 24.404C24.7436 25.3209 23.563 26 21.8727 26H15.705V16.6183H19.2432L19.6894 14.0605H15.705V9.23661H19.8789V6.62924H16.4634C15.9833 6.63658 15.1893 6.80829 14.4964 7.30516C13.8446 7.77258 13.2409 8.55386 13.0839 9.89612V14.0605H10.2019V16.6183H13.0839V26H4.44987L4.36975 25.9869C3.72358 25.8813 2.79296 25.5588 2.00143 24.9078C1.18054 24.2327 0.5 23.1889 0.5 21.7303V4.27619L0.500476 4.26078C0.521465 3.58067 0.730709 2.57711 1.32107 1.70744C1.94264 0.791786 2.9794 0.0479565 4.51416 0.022021Z" fill="black"/>
</svg>
