<?xml version="1.0" encoding="UTF-8"?>
<svg id="_Слой_2" data-name="Слой 2" xmlns="http://www.w3.org/2000/svg" viewBox="0 0 26 26">
  <defs>
    <style>
      .cls-1 {
        stroke-width: 0px;
      }
    </style>
  </defs>
  <g id="_Слой_1-2" data-name="Слой 1">
    <g>
      <path class="cls-1" d="M19,26H7c-3.86,0-7-3.14-7-7V7C0,3.14,3.14,0,7,0h12c3.86,0,7,3.14,7,7v12c0,3.86-3.14,7-7,7ZM7,2c-2.76,0-5,2.24-5,5v12c0,2.76,2.24,5,5,5h12c2.76,0,5-2.24,5-5V7c0-2.76-2.24-5-5-5H7Z"/>
      <path class="cls-1" d="M13,20.49c-4.13,0-7.49-3.36-7.49-7.49s3.36-7.49,7.49-7.49,7.49,3.36,7.49,7.49-3.36,7.49-7.49,7.49ZM13,7.51c-3.03,0-5.49,2.46-5.49,5.49s2.46,5.49,5.49,5.49,5.49-2.46,5.49-5.49-2.46-5.49-5.49-5.49Z"/>
      <path class="cls-1" d="M20.24,8.15c-1.34,0-2.44-1.09-2.44-2.44s1.09-2.44,2.44-2.44,2.44,1.09,2.44,2.44-1.09,2.44-2.44,2.44ZM20.24,5.27c-.24,0-.44.2-.44.44s.2.44.44.44.44-.2.44-.44-.2-.44-.44-.44Z"/>
    </g>
  </g>
</svg>