<?xml version="1.0" encoding="UTF-8"?>
<svg id="_Слой_2" data-name="Слой 2" xmlns="http://www.w3.org/2000/svg" viewBox="0 0 22 22">
  <defs>
    <style>
      .cls-1 {
        stroke-width: 0px;
      }
    </style>
  </defs>
  <g id="_Слой_1-2" data-name="Слой 1">
    <g>
      <path class="cls-1" d="M21,22c-.26,0-.51-.1-.71-.29L.29,1.71C-.1,1.32-.1.68.29.29S1.32-.1,1.71.29l20,20c.39.39.39,1.02,0,1.41-.2.2-.45.29-.71.29Z"/>
      <path class="cls-1" d="M1.83,21.96c-.26,0-.51-.1-.71-.29-.39-.39-.39-1.02,0-1.41L20.26,1.13c.39-.39,1.02-.39,1.41,0s.39,1.02,0,1.41L2.54,21.67c-.2.2-.45.29-.71.29Z"/>
    </g>
  </g>
</svg>