<?xml version="1.0" encoding="UTF-8"?>
<svg id="_Слой_2" data-name="Слой 2" xmlns="http://www.w3.org/2000/svg" viewBox="0 0 34 34">
  <defs>
    <style>
      .cls-1 {
        stroke-width: 0px;
      }
    </style>
  </defs>
  <g id="_Слой_1-2" data-name="Слой 1">
    <path class="cls-1" d="M24.81,34c-.45,0-4.55-.12-10.14-4.11-4.64-3.32-9.65-8.5-11.4-11.8C1.74,15.21.54,12.78.19,9.82l-.04-.37c-.23-1.94-.32-2.67.83-4.57.59-.98,1.9-2.16,2.95-3.11.43-.39.81-.73,1.05-.99,1.05-1.09,2.52-.89,3.55-.33.29.16.52.37.66.51.46.47,4.53,4.57,5.37,5.46,1.05,1.1.55,2.76-.4,3.92l-.09.09-1.76,1.66c-.64.6-.8,1.5-.38,2.18,2.66,4.3,6.34,6.6,7.8,7.4.71.39,1.5.06,1.98-.44.6-.62,1.43-1.47,1.99-1.96.87-.75,2.09-.87,3.27-.33.4.19.7.47.88.67,1.49,1.62,3.66,3.93,4.88,5.14,1.57,1.54,1.46,2.99.83,3.83-.11.15-.25.28-.38.41l-.11.11c-.28.29-1.34,1.37-2.97,2.76-2.24,1.92-4.1,2.14-5.3,2.14ZM6.86,2c-.16,0-.31.04-.43.17-.27.28-.69.66-1.16,1.08-.9.82-2.14,1.94-2.58,2.66-.79,1.31-.77,1.5-.55,3.3l.04.37c.31,2.61,1.43,4.87,2.86,7.56,1.4,2.63,5.93,7.63,10.8,11.11,5.16,3.7,8.82,3.74,8.97,3.74.96,0,2.28-.19,4-1.66,1.56-1.33,2.55-2.35,2.82-2.63.06-.06.12-.12.18-.17.05-.05.11-.1.16-.16.1-.13.02-.56-.63-1.2-1.26-1.23-3.45-3.58-4.96-5.21-.1-.11-.19-.18-.24-.21-.22-.1-.76-.3-1.13.02-.4.34-1.05.99-1.86,1.83-1.2,1.26-2.96,1.58-4.38.81-1.6-.87-5.63-3.4-8.54-8.1-.91-1.47-.61-3.44.71-4.68l1.71-1.61c.4-.51.57-1.11.46-1.22h0c-.68-.71-3.68-3.74-5.34-5.43-.03-.03-.12-.12-.19-.16-.12-.06-.42-.21-.72-.21Z"/>
  </g>
</svg>